# xmcd
#
# Track frame offsets:
#  150
#  12017
#  26662
#  46282
#  62835
#  80160
#  95220
#  109137
#  122545
#  143400
#  158815
#
# Disc length: 2271 seconds
#
# Revision: 3
# Processed by: cddbd v1.5.1PL0 Copyright (c) Steve Scherf et al.
# Submitted via: Collectorz.com Music Collector 6.9
#
DISCID=8b08dd0b
DTITLE=victor mecyssne - Personal Mercury
DYEAR=1997
DGENRE=
TTITLE0=Pilot Light
TTITLE1=Ragtop Automobile
TTITLE2=Tiny Tattoo
TTITLE3=Sleepy Nashville Town
TTITLE4=Lipstick On A Filtertip
TTITLE5=Pear-Shaped Woman
TTITLE6=It's Easy
TTITLE7=Call Me Up
TTITLE8=April's Got Me Thinkin' 'bout The Blues
TTITLE9=Summer Way Down South
TTITLE10=Trailer Park Hendrix
EXTD=
EXTT0=
EXTT1=
EXTT2=
EXTT3=
EXTT4=
EXTT5=
EXTT6=
EXTT7=
EXTT8=
EXTT9=
EXTT10=
PLAYORDER=
